<svg width="32" height="32" viewBox="0 0 32 32" fill="none" xmlns="http://www.w3.org/2000/svg">
<path d="M29.0001 16C28.9937 19.1761 27.8281 22.2406 25.7221 24.6182C23.6161 26.9957 20.7147 28.5227 17.5626 28.9125C17.4923 28.9194 17.4213 28.9117 17.3541 28.8898C17.2868 28.868 17.2249 28.8325 17.172 28.7855C17.1192 28.7386 17.0767 28.6812 17.0471 28.617C17.0175 28.5528 17.0015 28.4832 17.0001 28.4125V19H20.0001C20.1369 19.0003 20.2722 18.9725 20.3978 18.9184C20.5234 18.8643 20.6366 18.785 20.7303 18.6854C20.824 18.5858 20.8963 18.468 20.9427 18.3394C20.9891 18.2108 21.0087 18.074 21.0001 17.9375C20.978 17.6789 20.8586 17.4384 20.6661 17.2644C20.4735 17.0904 20.2221 16.9959 19.9626 17H17.0001V14C17.0001 13.4696 17.2108 12.9609 17.5859 12.5858C17.961 12.2107 18.4697 12 19.0001 12H21.0001C21.1369 12.0003 21.2722 11.9725 21.3978 11.9184C21.5234 11.8643 21.6366 11.785 21.7303 11.6854C21.824 11.5858 21.8963 11.468 21.9427 11.3394C21.9891 11.2108 22.0087 11.074 22.0001 10.9375C21.978 10.6789 21.8586 10.4384 21.6661 10.2644C21.4735 10.0904 21.2221 9.9959 20.9626 10H19.0001C17.9393 10 16.9218 10.4214 16.1717 11.1716C15.4216 11.9217 15.0001 12.9391 15.0001 14V17H12.0001C11.8634 16.9997 11.728 17.0275 11.6024 17.0816C11.4768 17.1358 11.3637 17.2151 11.27 17.3146C11.1762 17.4142 11.1039 17.532 11.0575 17.6606C11.0111 17.7892 10.9916 17.926 11.0001 18.0625C11.0222 18.3211 11.1416 18.5616 11.3342 18.7356C11.5267 18.9096 11.7781 19.0041 12.0376 19H15.0001V28.4125C15.0005 28.4826 14.9861 28.552 14.9579 28.6161C14.9297 28.6803 14.8883 28.7378 14.8365 28.785C14.7846 28.8321 14.7234 28.8679 14.6569 28.8898C14.5903 28.9118 14.5199 28.9195 14.4501 28.9125C7.85012 28.1125 2.75012 22.375 3.01262 15.5125C3.15998 12.1235 4.62619 8.9263 7.09829 6.60339C9.57039 4.28048 12.8525 3.01588 16.2442 3.0795C19.6358 3.14312 22.8682 4.52994 25.2515 6.94393C27.6347 9.35792 28.98 12.6078 29.0001 16Z" fill="white"/>
</svg>
