<svg width="32" height="32" viewBox="0 0 32 32" fill="none" xmlns="http://www.w3.org/2000/svg">
<path d="M30.7123 9.71249L26.9373 13.475C26.1873 22.2125 18.8123 29 9.99984 29C8.18734 29 6.68735 28.7125 5.54984 28.15C4.63734 27.6875 4.26234 27.2 4.16234 27.05C4.07961 26.9243 4.02629 26.7816 4.00637 26.6325C3.98646 26.4833 4.00045 26.3316 4.0473 26.1887C4.09416 26.0457 4.17268 25.9151 4.277 25.8067C4.38133 25.6983 4.50878 25.6148 4.64984 25.5625C4.67484 25.55 7.62485 24.425 9.53734 22.2625C8.35127 21.418 7.30878 20.3882 6.44984 19.2125C4.73734 16.8875 2.92484 12.85 4.01234 6.82499C4.04653 6.64588 4.12846 6.47932 4.24947 6.34291C4.37048 6.20649 4.52608 6.10529 4.69984 6.05C4.87416 5.99292 5.06082 5.98488 5.2394 6.02677C5.41797 6.06866 5.58159 6.15886 5.71234 6.2875C5.74984 6.33749 9.91234 10.4375 14.9998 11.7625V11C15.0048 10.2071 15.1658 9.42301 15.4737 8.69238C15.7817 7.96175 16.2305 7.29894 16.7947 6.74179C17.3588 6.18463 18.0271 5.74405 18.7615 5.44519C19.4959 5.14633 20.282 4.99506 21.0748 5C22.1155 5.01484 23.1345 5.29897 24.0326 5.82472C24.9308 6.35047 25.6774 7.0999 26.1998 8H29.9998C30.1973 7.99938 30.3905 8.05721 30.5551 8.16621C30.7197 8.27521 30.8483 8.43049 30.9248 8.6125C30.9969 8.79721 31.0152 8.99854 30.9776 9.1932C30.94 9.38787 30.848 9.56791 30.7123 9.71249Z" fill="white"/>
</svg>
